<?xml version="1.0" encoding="UTF-8" standalone="no"?>
<!-- Created with Inkscape (http://www.inkscape.org/) -->
<svg id="svg4485" xmlns:rdf="http://www.w3.org/1999/02/22-rdf-syntax-ns#" xmlns="http://www.w3.org/2000/svg" height="56.924mm" width="71.468mm" version="1.1" xmlns:cc="http://creativecommons.org/ns#" xmlns:dc="http://purl.org/dc/elements/1.1/" viewBox="0 0 253.23157 201.69772">
<metadata id="metadata4490">
<rdf:RDF>
<cc:Work rdf:about="">
<dc:format>image/svg+xml</dc:format>
<dc:type rdf:resource="http://purl.org/dc/dcmitype/StillImage"/>
<dc:title/>
</cc:Work>
</rdf:RDF>
</metadata>
<g id="layer1" fill-rule="evenodd" transform="translate(-232.4 -283.8)" stroke="#000" stroke-width="1px">
<path id="path4510" d="m269.46 399.3c2.7262-2.4762 5.224-4.409 7.6982-6.4052 7.7553-6.2573 14.49-11.904 20.828-17.094 75.386-61.73 46.454-59.028 151.28 23.752l0.7576 76.772s-1.5152 8.8388-9.849 8.3338c-8.3337-0.50507-60.609-0.25254-60.609-0.25254v-59.346l-39.901-0.25254-0.7576 59.852s-55.811 0.75762-61.367 0c-5.5558-0.75761-7.8274-9.1653-7.8274-9.1653z"/>
<path id="path4512" d="m233.09 385.41c114.9-96.975 115.66-97.48 115.66-97.48s11.484-8.2445 22.343 0.0893c9.307 7.1426 26.618 25.603 34.191 30.035 1.6009 0.93698 3.3993 0.65528 4.1948 0.64828-0.1019-5.9378 0.1326-30.773 0.1326-30.773s0-3.283 4.7982-3.283c4.7983 0 30.305 0.25254 30.305 0.25254 2.6768-0.0269 5.3338-0.0197 5.0508 5.0508l-0.7576 63.64 34.661 29.421c1.8116 2.2699 1.884 3.1209 0.505 6.3135 0 0-10.67 14.773-11.68 14.016-0.9117-0.68379-91.009-76.977-108.86-91.586-1.9272-1.577-4.423-1.4681-4.423-1.4681-2.6629 0.12098-3.4879 0.82027-4.6701 1.572l-104.26 89.46c-1.5561 1.2228-2.9058 1.1749-5.0508-0.47351z"/>
</g>
</svg>
